<svg id="visual" viewBox="0 0 900 600" width="900" height="600" xmlns="http://www.w3.org/2000/svg" xmlns:xlink="http://www.w3.org/1999/xlink" version="1.1"><path d="M0 49L82 49L82 37L164 37L164 73L245 73L245 55L327 55L327 61L409 61L409 61L491 61L491 91L573 91L573 79L655 79L655 103L736 103L736 67L818 67L818 73L900 73L900 61L900 0L900 0L818 0L818 0L736 0L736 0L655 0L655 0L573 0L573 0L491 0L491 0L409 0L409 0L327 0L327 0L245 0L245 0L164 0L164 0L82 0L82 0L0 0Z" fill="#fa7268"></path><path d="M0 163L82 163L82 163L164 163L164 187L245 187L245 139L327 139L327 103L409 103L409 115L491 115L491 151L573 151L573 127L655 127L655 175L736 175L736 121L818 121L818 139L900 139L900 127L900 59L900 71L818 71L818 65L736 65L736 101L655 101L655 77L573 77L573 89L491 89L491 59L409 59L409 59L327 59L327 53L245 53L245 71L164 71L164 35L82 35L82 47L0 47Z" fill="#ea5e66"></path><path d="M0 247L82 247L82 217L164 217L164 319L245 319L245 259L327 259L327 223L409 223L409 181L491 181L491 301L573 301L573 265L655 265L655 253L736 253L736 211L818 211L818 289L900 289L900 199L900 125L900 137L818 137L818 119L736 119L736 173L655 173L655 125L573 125L573 149L491 149L491 113L409 113L409 101L327 101L327 137L245 137L245 185L164 185L164 161L82 161L82 161L0 161Z" fill="#d84a64"></path><path d="M0 517L82 517L82 319L164 319L164 445L245 445L245 511L327 511L327 379L409 379L409 349L491 349L491 493L573 493L573 481L655 481L655 355L736 355L736 421L818 421L818 469L900 469L900 505L900 197L900 287L818 287L818 209L736 209L736 251L655 251L655 263L573 263L573 299L491 299L491 179L409 179L409 221L327 221L327 257L245 257L245 317L164 317L164 215L82 215L82 245L0 245Z" fill="#c53762"></path><path d="M0 601L82 601L82 601L164 601L164 601L245 601L245 601L327 601L327 601L409 601L409 601L491 601L491 601L573 601L573 601L655 601L655 601L736 601L736 601L818 601L818 601L900 601L900 601L900 503L900 467L818 467L818 419L736 419L736 353L655 353L655 479L573 479L573 491L491 491L491 347L409 347L409 377L327 377L327 509L245 509L245 443L164 443L164 317L82 317L82 515L0 515Z" fill="#b0235f"></path></svg>